<svg viewBox="0 0 26 24" xmlns="http://www.w3.org/2000/svg">
  <path d="M 20.529 3.268 L 19.151 5.657 L 22.633 11.685 L 22.637 11.694 L 22.642 11.702 L 22.646 11.712 L 22.65 11.721 L 22.653 11.73 L 22.657 11.74 L 22.66 11.749 L 22.663 11.759 L 22.665 11.769 L 22.667 11.779 L 22.669 11.789 L 22.671 11.799 L 22.672 11.808 L 22.673 11.818 L 22.673 11.828 L 22.674 11.837 L 22.673 11.847 L 22.673 11.857 L 22.672 11.866 L 22.671 11.876 L 22.669 11.886 L 22.667 11.896 L 22.665 11.906 L 22.663 11.916 L 22.66 11.925 L 22.657 11.935 L 22.653 11.944 L 22.65 11.954 L 22.646 11.963 L 22.642 11.972 L 22.637 11.981 L 22.633 11.99 L 19.151 18.023 L 20.529 20.412 L 25.479 11.837 L 20.529 3.263 Z"/>
  <path d="M 18.618 5.347 L 19.995 2.958 L 17.24 2.958 L 15.863 5.347 L 18.623 5.347 Z"/>
  <path d="M 15.858 5.967 L 19.075 11.532 L 21.83 11.532 L 18.618 5.967 Z"/>
  <path d="M 18.618 17.718 L 21.83 12.147 L 19.075 12.147 L 15.858 17.718 Z"/>
  <path d="M 15.858 18.338 L 17.235 20.717 L 19.99 20.717 L 18.613 18.338 L 15.853 18.338 Z"/>
  <path d="M 6.521 21.306 L 6.511 21.306 L 6.5 21.306 L 6.49 21.305 L 6.48 21.304 L 6.47 21.302 L 6.46 21.3 L 6.451 21.298 L 6.441 21.295 L 6.431 21.293 L 6.422 21.29 L 6.413 21.286 L 6.404 21.283 L 6.395 21.279 L 6.386 21.275 L 6.377 21.27 L 6.369 21.266 L 6.36 21.261 L 6.352 21.255 L 6.343 21.25 L 6.335 21.244 L 6.327 21.238 L 6.32 21.231 L 6.312 21.224 L 6.305 21.217 L 6.298 21.21 L 6.291 21.203 L 6.285 21.195 L 6.278 21.187 L 6.273 21.179 L 6.267 21.171 L 6.262 21.162 L 6.257 21.154 L 2.77 15.121 L 0.015 15.121 L 4.966 23.69 L 14.861 23.69 L 13.484 21.306 L 6.526 21.306 Z"/>
  <path d="M 14.018 20.996 L 15.395 23.38 L 16.773 20.991 L 15.395 18.602 L 14.018 20.991 Z"/>
  <path d="M 14.861 18.297 L 8.437 18.297 L 7.06 20.686 L 13.484 20.686 Z"/>
  <path d="M 7.898 17.992 L 4.681 12.422 L 3.304 14.811 L 6.521 20.381 Z"/>
  <path d="M 0.01 14.501 L 2.765 14.501 L 4.142 12.112 L 1.393 12.112 Z"/>
  <path d="M 6.241 2.541 L 6.246 2.533 L 6.252 2.524 L 6.257 2.516 L 6.263 2.508 L 6.269 2.5 L 6.276 2.493 L 6.283 2.485 L 6.29 2.478 L 6.297 2.471 L 6.304 2.464 L 6.312 2.457 L 6.32 2.451 L 6.328 2.445 L 6.336 2.44 L 6.345 2.434 L 6.353 2.429 L 6.362 2.425 L 6.371 2.42 L 6.38 2.416 L 6.389 2.412 L 6.399 2.409 L 6.408 2.405 L 6.418 2.402 L 6.428 2.4 L 6.437 2.397 L 6.447 2.395 L 6.457 2.393 L 6.467 2.392 L 6.477 2.39 L 6.486 2.39 L 6.496 2.389 L 6.506 2.389 L 13.474 2.389 L 14.851 0 L 4.95 0 L 0 8.574 L 2.755 8.574 L 6.231 2.546 Z"/>
  <path d="M 4.142 11.578 L 2.765 9.189 L 0.01 9.189 L 1.388 11.578 Z"/>
  <path d="M 6.511 3.314 L 3.299 8.879 L 4.676 11.268 L 7.888 5.703 Z"/>
  <path d="M 13.479 3.004 L 7.044 3.004 L 8.422 5.393 L 14.856 5.393 Z"/>
  <path d="M 15.395 5.083 L 16.767 2.699 L 15.395 0.31 L 14.018 2.694 Z"/>
</svg>
