<svg viewBox="0 0 48 48" xmlns="http://www.w3.org/2000/svg">
  <path d="M 25.853 9.453 L 25.658 9.348 L 25.457 9.258 L 25.252 9.18 L 25.044 9.117 L 24.833 9.067 L 24.62 9.031 L 24.405 9.009 L 24.189 9 L 23.974 9.005 L 23.759 9.023 L 23.545 9.056 L 23.333 9.101 L 23.124 9.161 L 22.918 9.234 L 22.716 9.321 L 22.519 9.422 L 22.516 9.425 L 22.512 9.427 L 22.509 9.43 L 22.505 9.433 L 22.502 9.435 L 22.498 9.438 L 22.494 9.44 L 22.491 9.443 L 22.487 9.445 L 22.483 9.448 L 22.479 9.45 L 22.476 9.452 L 22.472 9.455 L 22.468 9.457 L 22.464 9.459 L 22.46 9.462 L 22.46 9.462 L 22.458 9.463 L 22.323 9.545 L 22.193 9.633 L 22.068 9.726 L 21.948 9.824 L 21.832 9.928 L 21.722 10.036 L 21.618 10.149 L 21.518 10.267 L 21.424 10.388 L 21.336 10.514 L 21.254 10.643 L 21.178 10.776 L 21.107 10.912 L 21.043 11.051 L 20.985 11.193 L 20.934 11.338 L 20.914 11.401 L 20.896 11.464 L 20.878 11.528 L 20.862 11.592 L 20.847 11.657 L 20.834 11.721 L 20.821 11.787 L 20.81 11.852 L 20.8 11.918 L 20.792 11.984 L 20.785 12.051 L 20.779 12.118 L 20.774 12.185 L 20.771 12.252 L 20.769 12.32 L 20.768 12.387 L 20.768 16.866 L 26.378 20.104 L 26.378 20.104 L 26.631 20.26 L 26.87 20.431 L 27.095 20.617 L 27.307 20.816 L 27.505 21.027 L 27.687 21.25 L 27.855 21.484 L 28.007 21.728 L 28.142 21.981 L 28.261 22.243 L 28.363 22.513 L 28.448 22.79 L 28.514 23.072 L 28.562 23.36 L 28.591 23.653 L 28.601 23.949 L 28.601 35.511 L 28.6 35.601 L 28.598 35.69 L 28.593 35.78 L 28.587 35.869 L 28.579 35.957 L 28.569 36.045 L 28.557 36.133 L 28.544 36.221 L 28.529 36.308 L 28.512 36.394 L 28.494 36.48 L 28.474 36.566 L 28.452 36.651 L 28.428 36.735 L 28.403 36.819 L 28.377 36.903 L 28.375 36.909 L 28.372 36.916 L 28.37 36.923 L 28.368 36.93 L 28.366 36.936 L 28.363 36.943 L 28.361 36.95 L 28.359 36.956 L 28.356 36.963 L 28.354 36.97 L 28.352 36.976 L 28.35 36.983 L 28.347 36.99 L 28.345 36.996 L 28.343 37.003 L 28.34 37.01 L 35.866 32.665 L 35.867 32.664 L 36.059 32.545 L 36.242 32.414 L 36.414 32.273 L 36.575 32.121 L 36.726 31.96 L 36.865 31.79 L 36.993 31.612 L 37.109 31.425 L 37.212 31.232 L 37.303 31.032 L 37.381 30.826 L 37.446 30.615 L 37.496 30.4 L 37.533 30.18 L 37.555 29.956 L 37.563 29.73 L 37.563 18.168 L 37.555 17.943 L 37.533 17.72 L 37.496 17.501 L 37.445 17.285 L 37.38 17.074 L 37.302 16.868 L 37.211 16.668 L 37.107 16.475 L 36.991 16.288 L 36.864 16.109 L 36.724 15.939 L 36.573 15.778 L 36.412 15.626 L 36.24 15.484 L 36.058 15.353 L 35.866 15.234 L 35.866 15.234 Z"/>
  <path d="M 12.445 15.245 L 19.973 10.899 L 19.966 10.918 L 19.936 11.006 L 19.907 11.095 L 19.881 11.185 L 19.856 11.275 L 19.833 11.366 L 19.812 11.457 L 19.793 11.549 L 19.776 11.642 L 19.761 11.735 L 19.748 11.828 L 19.737 11.922 L 19.728 12.017 L 19.72 12.112 L 19.715 12.207 L 19.712 12.302 L 19.711 12.398 L 19.711 23.96 L 19.721 24.256 L 19.75 24.549 L 19.798 24.837 L 19.865 25.119 L 19.949 25.396 L 20.051 25.666 L 20.17 25.927 L 20.306 26.181 L 20.457 26.425 L 20.625 26.659 L 20.808 26.882 L 21.005 27.093 L 21.217 27.292 L 21.442 27.477 L 21.682 27.649 L 21.933 27.805 L 21.934 27.805 L 27.544 31.043 L 27.544 35.522 L 27.544 35.594 L 27.541 35.667 L 27.538 35.739 L 27.532 35.81 L 27.525 35.882 L 27.517 35.953 L 27.507 36.024 L 27.496 36.094 L 27.483 36.164 L 27.469 36.234 L 27.454 36.303 L 27.437 36.372 L 27.418 36.44 L 27.398 36.508 L 27.377 36.575 L 27.355 36.642 L 27.302 36.781 L 27.243 36.918 L 27.178 37.052 L 27.108 37.183 L 27.031 37.311 L 26.95 37.435 L 26.863 37.556 L 26.77 37.673 L 26.672 37.786 L 26.57 37.895 L 26.462 37.999 L 26.349 38.099 L 26.232 38.194 L 26.11 38.284 L 25.983 38.369 L 25.852 38.449 L 25.852 38.449 L 25.849 38.451 L 25.845 38.453 L 25.842 38.455 L 25.838 38.457 L 25.835 38.459 L 25.831 38.461 L 25.828 38.464 L 25.824 38.466 L 25.821 38.468 L 25.818 38.47 L 25.814 38.473 L 25.811 38.475 L 25.808 38.477 L 25.804 38.48 L 25.801 38.482 L 25.798 38.484 L 25.601 38.586 L 25.399 38.673 L 25.192 38.747 L 24.983 38.807 L 24.771 38.853 L 24.557 38.885 L 24.342 38.904 L 24.126 38.909 L 23.91 38.901 L 23.695 38.878 L 23.481 38.842 L 23.27 38.792 L 23.061 38.729 L 22.856 38.652 L 22.655 38.561 L 22.459 38.456 L 22.459 38.456 L 12.446 32.675 L 12.446 32.675 L 12.254 32.556 L 12.072 32.425 L 11.9 32.283 L 11.739 32.132 L 11.588 31.97 L 11.449 31.8 L 11.321 31.621 L 11.205 31.434 L 11.101 31.241 L 11.01 31.041 L 10.932 30.835 L 10.867 30.624 L 10.816 30.408 L 10.78 30.189 L 10.757 29.966 L 10.75 29.741 L 10.75 18.179 L 10.757 17.953 L 10.779 17.729 L 10.816 17.51 L 10.867 17.294 L 10.931 17.083 L 11.009 16.877 L 11.1 16.677 L 11.203 16.484 L 11.319 16.297 L 11.447 16.119 L 11.586 15.949 L 11.737 15.788 L 11.899 15.636 L 12.071 15.495 L 12.253 15.364 Z"/>
</svg>
